<?xml version="1.0" encoding="UTF-8"?>
<svg id="_layer_1" data-name="Layer B1" xmlns="http://www.w3.org/2000/svg" viewBox="0 0 530.83 442.5">
  <defs>
    <style>
      .cls-1 {
        opacity: .03;
      }

      .cls-2 {
        opacity: .08;
      }

      .cls-3 {
        fill: #fff;
      }

      .cls-4 {
        opacity: .04;
      }

      .cls-5 {
        opacity: .06;
      }

      .cls-6 {
        opacity: .02;
      }

      .cls-7 {
        opacity: .05;
      }

      .cls-8 {
        opacity: .08;
      }

      .cls-9 {
        opacity: .07;
      }

      .cls-10 {
        opacity: .01;
      }

      .cls-11 {
        opacity: .05;
      }

      .cls-12 {
        opacity: .09;
      }

      .cls-13 {
        opacity: .03;
      }

      .cls-14 {
        opacity: .04;
      }

      .cls-15 {
        opacity: 00;
      }

      .cls-16 {
        opacity: .04;
      }

      .cls-17 {
        opacity: .04;
      }

      .cls-18 {
        opacity: .01;
      }

      .cls-19 {
        opacity: .07;
      }

      .cls-20 {
        opacity: .05;
      }

      .cls-21 {
        opacity: .09;
      }
    </style>
  </defs>
  <g class="cls-20">
    <polygon class="cls-3" points="265.41 225 225 295 305.83 295 265.41 225"/>
  </g>
  <g class="cls-8">
    <polygon class="cls-3" points="310.41 295 270 225 350.83 225 310.41 295"/>
  </g>
  <g class="cls-16">
    <polygon class="cls-3" points="175.41 225 135 295 215.83 295 175.41 225"/>
  </g>
  <g class="cls-1">
    <polygon class="cls-3" points="220.41 295 180 225 260.83 225 220.41 295"/>
  </g>
  <g class="cls-2">
    <polygon class="cls-3" points="355.41 225 315 295 395.83 295 355.41 225"/>
  </g>
  <g class="cls-5">
    <polygon class="cls-3" points="130.41 295 90 225 170.83 225 130.41 295"/>
  </g>
  <g class="cls-10">
    <polygon class="cls-3" points="445.41 225 405 295 485.83 295 445.41 225"/>
  </g>
  <g class="cls-8">
    <polygon class="cls-3" points="400.41 295 360 225 440.83 225 400.41 295"/>
  </g>
  <g class="cls-17">
    <polyline class="cls-3" points="470.54 225 530.83 225 490.41 295 450 225 470.54 225"/>
  </g>
  <g class="cls-18">
    <polygon class="cls-3" points="85.41 225 45 295 125.83 295 85.41 225"/>
  </g>
  <g class="cls-19">
    <polyline class="cls-3" points="20.54 225 80.83 225 40.41 295 0 225 20.54 225"/>
  </g>
  <g class="cls-1">
    <polygon class="cls-3" points="310.41 150 270 220 350.83 220 310.41 150"/>
  </g>
  <g class="cls-9">
    <polygon class="cls-3" points="355.41 220 315 150 395.83 150 355.41 220"/>
  </g>
  <g class="cls-6">
    <polygon class="cls-3" points="220.41 150 180 220 260.83 220 220.41 150"/>
  </g>
  <g class="cls-19">
    <polygon class="cls-3" points="265.41 220 225 150 305.83 150 265.41 220"/>
  </g>
  <g class="cls-8">
    <polygon class="cls-3" points="400.41 150 360 220 440.83 220 400.41 150"/>
  </g>
  <g class="cls-8">
    <polygon class="cls-3" points="175.41 220 135 150 215.83 150 175.41 220"/>
  </g>
  <g class="cls-13">
    <polygon class="cls-3" points="490.41 150 450 220 530.83 220 490.41 150"/>
  </g>
  <g class="cls-14">
    <polygon class="cls-3" points="445.41 220 405 150 485.83 150 445.41 220"/>
  </g>
  <g class="cls-8">
    <polygon class="cls-3" points="130.41 150 90 220 170.83 220 130.41 150"/>
  </g>
  <g class="cls-21">
    <polygon class="cls-3" points="40.41 150 0 220 80.83 220 40.41 150"/>
  </g>
  <g class="cls-17">
    <polyline class="cls-3" points="65.54 150 125.83 150 85.41 220 45 150 65.54 150"/>
  </g>
  <g class="cls-10">
    <polygon class="cls-3" points="265.41 75 225 145 305.83 145 265.41 75"/>
  </g>
  <g class="cls-12">
    <polygon class="cls-3" points="310.41 145 270 75 350.83 75 310.41 145"/>
  </g>
  <g class="cls-21">
    <polygon class="cls-3" points="175.41 75 135 145 215.83 145 175.41 75"/>
  </g>
  <g class="cls-10">
    <polygon class="cls-3" points="220.41 145 180 75 260.83 75 220.41 145"/>
  </g>
  <g class="cls-19">
    <polygon class="cls-3" points="355.41 75 315 145 395.83 145 355.41 75"/>
  </g>
  <g class="cls-2">
    <polygon class="cls-3" points="130.41 145 90 75 170.83 75 130.41 145"/>
  </g>
  <g class="cls-12">
    <polygon class="cls-3" points="445.41 75 405 145 485.83 145 445.41 75"/>
  </g>
  <g class="cls-13">
    <polygon class="cls-3" points="400.41 145 360 75 440.83 75 400.41 145"/>
  </g>
  <g class="cls-16">
    <polyline class="cls-3" points="470.54 75 530.83 75 490.41 145 450 75 470.54 75"/>
  </g>
  <g class="cls-11">
    <polygon class="cls-3" points="85.41 75 45 145 125.83 145 85.41 75"/>
  </g>
  <g class="cls-14">
    <polyline class="cls-3" points="20.54 75 80.83 75 40.41 145 0 75 20.54 75"/>
  </g>
  <g class="cls-9">
    <polygon class="cls-3" points="310.41 0 270 70 350.83 70 310.41 0"/>
  </g>
  <g class="cls-17">
    <polygon class="cls-3" points="355.41 70 315 0 395.83 0 355.41 70"/>
  </g>
  <g class="cls-8">
    <polygon class="cls-3" points="220.41 0 180 70 260.83 70 220.41 0"/>
  </g>
  <g class="cls-9">
    <polygon class="cls-3" points="265.41 70 225 0 305.83 0 265.41 70"/>
  </g>
  <g class="cls-10">
    <polygon class="cls-3" points="400.41 0 360 70 440.83 70 400.41 0"/>
  </g>
  <g class="cls-18">
    <polygon class="cls-3" points="175.41 70 135 0 215.83 0 175.41 70"/>
  </g>
  <g class="cls-14">
    <polygon class="cls-3" points="490.41 0 450 70 530.83 70 490.41 0"/>
  </g>
  <g class="cls-1">
    <polygon class="cls-3" points="445.41 70 405 0 485.83 0 445.41 70"/>
  </g>
  <g class="cls-4">
    <polygon class="cls-3" points="130.41 0 90 70 170.83 70 130.41 0"/>
  </g>
  <g class="cls-19">
    <polygon class="cls-3" points="40.41 0 0 70 80.83 70 40.41 0"/>
  </g>
  <g class="cls-21">
    <polyline class="cls-3" points="65.54 0 125.83 0 85.41 70 45 0 65.54 0"/>
  </g>
  <g class="cls-19">
    <polygon class="cls-3" points="310.41 297.5 270 367.5 350.83 367.5 310.41 297.5"/>
  </g>
  <g class="cls-11">
    <polygon class="cls-3" points="355.41 367.5 315 297.5 395.83 297.5 355.41 367.5"/>
  </g>
  <g class="cls-12">
    <polygon class="cls-3" points="220.41 297.5 180 367.5 260.83 367.5 220.41 297.5"/>
  </g>
  <g class="cls-11">
    <polygon class="cls-3" points="265.41 367.5 225 297.5 305.83 297.5 265.41 367.5"/>
  </g>
  <g class="cls-21">
    <polygon class="cls-3" points="400.41 297.5 360 367.5 440.83 367.5 400.41 297.5"/>
  </g>
  <g class="cls-17">
    <polygon class="cls-3" points="175.41 367.5 135 297.5 215.83 297.5 175.41 367.5"/>
  </g>
  <g class="cls-9">
    <polygon class="cls-3" points="490.41 297.5 450 367.5 530.83 367.5 490.41 297.5"/>
  </g>
  <g class="cls-15">
    <polygon class="cls-3" points="445.41 367.5 405 297.5 485.83 297.5 445.41 367.5"/>
  </g>
  <g class="cls-10">
    <polygon class="cls-3" points="130.41 297.5 90 367.5 170.83 367.5 130.41 297.5"/>
  </g>
  <g class="cls-5">
    <polygon class="cls-3" points="40.41 297.5 0 367.5 80.83 367.5 40.41 297.5"/>
  </g>
  <g class="cls-2">
    <polyline class="cls-3" points="65.54 297.5 125.83 297.5 85.41 367.5 45 297.5 65.54 297.5"/>
  </g>
  <g class="cls-4">
    <polygon class="cls-3" points="265.41 372.5 225 442.5 305.83 442.5 265.41 372.5"/>
  </g>
  <g class="cls-19">
    <polygon class="cls-3" points="310.41 442.5 270 372.5 350.83 372.5 310.41 442.5"/>
  </g>
  <g class="cls-17">
    <polygon class="cls-3" points="175.41 372.5 135 442.5 215.83 442.5 175.41 372.5"/>
  </g>
  <g class="cls-1">
    <polygon class="cls-3" points="220.41 442.5 180 372.5 260.83 372.5 220.41 442.5"/>
  </g>
  <g class="cls-10">
    <polygon class="cls-3" points="355.41 372.5 315 442.5 395.83 442.5 355.41 372.5"/>
  </g>
  <g class="cls-19">
    <polygon class="cls-3" points="130.41 442.5 90 372.5 170.83 372.5 130.41 442.5"/>
  </g>
  <g class="cls-19">
    <polygon class="cls-3" points="445.41 372.5 405 442.5 485.83 442.5 445.41 372.5"/>
  </g>
  <g class="cls-17">
    <polygon class="cls-3" points="400.41 442.5 360 372.5 440.83 372.5 400.41 442.5"/>
  </g>
  <g class="cls-1">
    <polyline class="cls-3" points="470.54 372.5 530.83 372.5 490.41 442.5 450 372.5 470.54 372.5"/>
  </g>
  <g class="cls-16">
    <polygon class="cls-3" points="85.41 372.5 45 442.5 125.83 442.5 85.41 372.5"/>
  </g>
  <g class="cls-7">
    <polyline class="cls-3" points="20.54 372.5 80.83 372.5 40.41 442.5 0 372.5 20.54 372.5"/>
  </g>
</svg>